M71
M48
T1F00S00C0.38
T2F00S00C0.89
T3F00S00C1.14
T4F00S00C3.05
%
T01
X005842Y009398
X006096
X00635
Y009652
Y009906
X006096
X005842
X005461Y009931
X005588Y010084
X005334
X005461Y010236
X007366Y009906
X00762
X007874
X007366Y009652
Y009398
X00762
X007315Y009093
X007188Y008941
X007442
X007315Y008788
X007899Y008636
X007747Y010947
X007849Y011074
X007645
X007747Y011201
X008477Y011246
X008509Y010732
X008534Y010509
X008484Y010414
X008128
Y01016
Y009906
X008484
X008585
X008687
X00889
X008992
X009093
X009296
X009398
X0095
X009703
X009804
X009906
X010109
X010211
X010312
X010516
X010617
X010719
X010922
X011024
X011125
X011328
X01143
X011532
X011633
X011735
X011836
X01143Y009652
Y009398
X011176
X010922
Y009652
X010668
X010414
X01016
X009906
X009652
X009398
X009144
X00889
X008636
Y009398
Y009144
X008534Y008941
X008382Y008814
Y009068
X00823Y008941
X008033
X008026Y008763
X008153Y008636
X008026Y008509
X008128Y010668
X008763Y010732
X008992
X00922
X009449
X009627Y01077
X009754Y010509
X009703Y010414
X009296
X00889
X008941Y010509
X009296Y010973
X009982Y011125
X010262Y011024
X010389Y010871
X010262Y010719
X01016Y010509
X010109Y010414
X010516
X010566Y010509
X010973
X010922Y010414
X011328
X011379Y010509
X011328Y010732
X011532Y01077
X011684Y010655
Y010897
X011836Y01077
X011074Y010732
X01082
X010998Y011278
X011024Y011379
X010262Y011481
X010389Y011633
X010262Y011786
X009906Y011887
X011722Y011786
X011938Y011379
X011913Y010465
X012141Y010236
X011963Y010033
X012243Y009652
Y009398
X012116Y009525
X012522Y009779
X013081Y009652
X01336Y009728
X013411Y00983
X013538Y009957
X013411Y010084
X013716Y010262
X013614Y010566
X013233Y011125
X012979
X013106Y010998
X012605Y011767
X012344Y008839
X013614Y009347
X013335Y01204
X013132Y012446
X013614
X012624Y012141
X012649Y012827
Y013081
X012802Y012954
X012497
X01049Y012141
X01016Y01204
X009296Y012014
X007747Y012141
X007493
X00762Y011989
X007772Y012395
T02
X006096Y009652
X00762
X0127Y009144
X012954Y00889
X013208Y009144
X01397Y008128
X012446
X009652Y012243
Y012624
T03
X006604Y008026
X006985
X005486Y009271
Y009652
Y011697
X011176Y009652
Y008128
X010211
X014935Y009144
Y00955
Y010668
X014834Y01143
Y011811
X013919Y010668
Y012446
Y013462
X014834Y012192
X005486Y012078
Y012459
Y01284
Y013221
T04
X005613Y008153
X014707
Y013183
X006604
M30
