%FSLAX42Y42*%
%MOMM*%
G71*
G01*
G75*
%ADD10C,0.25*%
%ADD11R,1.27X1.27*%
%ADD12R,1.52X1.78*%
%ADD13R,1.02X0.76*%
%ADD14R,0.76X1.02*%
%ADD15R,1.78X1.52*%
%ADD16R,1.78X1.27*%
%ADD17R,1.27X1.78*%
%ADD18R,1.52X0.61*%
%ADD19R,1.27X1.40*%
%ADD20R,0.61X1.52*%
%ADD21R,1.40X1.27*%
%ADD22C,0.13*%
%ADD23C,0.15*%
%ADD24C,0.76*%
%ADD25C,2.54*%
%ADD26C,2.03*%
%ADD27R,2.03X2.03*%
%ADD28R,2.54X2.54*%
%ADD29C,9.14*%
%ADD30C,0.51*%
%ADD31R,1.47X1.47*%
%ADD32R,1.73X1.98*%
%ADD33R,1.22X0.97*%
%ADD34R,0.97X1.22*%
%ADD35R,1.98X1.73*%
%ADD36R,1.98X1.47*%
%ADD37R,1.47X1.98*%
%ADD38R,1.73X0.81*%
%ADD39R,1.47X1.60*%
%ADD40R,0.81X1.73*%
%ADD41R,1.60X1.47*%
%ADD42C,2.74*%
%ADD43C,2.24*%
%ADD44R,2.24X2.24*%
%ADD45R,2.74X2.74*%
%ADD46C,9.35*%
%ADD47C,0.17*%
D10*
X20734Y17577D02*
Y23673D01*
X30894Y17577D02*
Y23673D01*
X20734D02*
X30894D01*
X20734Y17577D02*
X30894D01*
Y17247D02*
Y17298D01*
X20734Y17247D02*
Y17298D01*
X30742Y17221D02*
X30894Y17272D01*
X30742Y17323D02*
X30894Y17272D01*
X20734D02*
X20886Y17221D01*
X20734Y17272D02*
X20886Y17323D01*
X26527Y17272D02*
X30894D01*
X20734D02*
X25100D01*
X20734Y16891D02*
Y17577D01*
X20074Y23673D02*
X20124D01*
X20074Y17577D02*
X20124D01*
X20099Y23673D02*
X20150Y23521D01*
X20048D02*
X20099Y23673D01*
Y17577D02*
X20150Y17729D01*
X20048D02*
X20099Y17577D01*
Y21339D02*
Y23673D01*
Y17577D02*
Y19911D01*
X19845Y17577D02*
X20734D01*
D22*
X26608Y20466D02*
X26646D01*
X26627Y20447D02*
Y20485D01*
X24931Y20371D02*
X24969D01*
X24950Y20352D02*
Y20390D01*
X26557Y20371D02*
X26595D01*
X26576Y20352D02*
Y20390D01*
X26963Y20371D02*
X27001D01*
X26982Y20352D02*
Y20390D01*
X26150Y20371D02*
X26189D01*
X26170Y20352D02*
Y20390D01*
X25744Y20371D02*
X25782D01*
X25763Y20352D02*
Y20390D01*
X25338Y20371D02*
X25376D01*
X25357Y20352D02*
Y20390D01*
X24525Y20371D02*
X24563D01*
X24544Y20352D02*
Y20390D01*
X24118Y20371D02*
X24157D01*
X24138Y20352D02*
Y20390D01*
X27370Y19863D02*
X27408D01*
X27389Y19844D02*
Y19882D01*
X27166Y19863D02*
X27205D01*
X27186Y19844D02*
Y19882D01*
X26963Y19863D02*
X27001D01*
X26982Y19844D02*
Y19882D01*
X26760Y19863D02*
X26798D01*
X26779Y19844D02*
Y19882D01*
X26557Y19863D02*
X26595D01*
X26576Y19844D02*
Y19882D01*
X26354Y19863D02*
X26392D01*
X26373Y19844D02*
Y19882D01*
X26150Y19863D02*
X26189D01*
X26170Y19844D02*
Y19882D01*
X25947Y19863D02*
X25985D01*
X25966Y19844D02*
Y19882D01*
X25744Y19863D02*
X25782D01*
X25763Y19844D02*
Y19882D01*
X25541Y19863D02*
X25579D01*
X25560Y19844D02*
Y19882D01*
X25338Y19863D02*
X25376D01*
X25357Y19844D02*
Y19882D01*
X25134Y19863D02*
X25173D01*
X25154Y19844D02*
Y19882D01*
X24931Y19863D02*
X24969D01*
X24950Y19844D02*
Y19882D01*
X24728Y19863D02*
X24766D01*
X24747Y19844D02*
Y19882D01*
X24525Y19863D02*
X24563D01*
X24544Y19844D02*
Y19882D01*
X24118Y19863D02*
X24157D01*
X24138Y19844D02*
Y19882D01*
X24322Y19863D02*
X24360D01*
X24341Y19844D02*
Y19882D01*
X27319Y20612D02*
X27357D01*
X27338Y20593D02*
Y20631D01*
X27166Y20727D02*
X27205D01*
X27186Y20708D02*
Y20746D01*
X27471Y20727D02*
X27509D01*
X27490Y20708D02*
Y20746D01*
X27319Y20854D02*
X27357D01*
X27338Y20835D02*
Y20873D01*
X24169Y20466D02*
X24207D01*
X24188Y20447D02*
Y20485D01*
X25388Y20466D02*
X25427D01*
X25408Y20447D02*
Y20485D01*
X27014Y20466D02*
X27052D01*
X27033Y20447D02*
Y20485D01*
X27357Y21743D02*
X27395D01*
X27376Y21724D02*
Y21762D01*
X25896Y20981D02*
X25935D01*
X25916Y20962D02*
Y21000D01*
X29516Y22403D02*
X29630D01*
X29573Y22346D02*
Y22460D01*
X29516Y20625D02*
X29630D01*
X29573Y20568D02*
Y20682D01*
X30532Y20625D02*
X30646D01*
X30589Y20568D02*
Y20682D01*
X23255Y21946D02*
X23293D01*
X23274Y21927D02*
Y21965D01*
X23128Y22098D02*
X23166D01*
X23147Y22079D02*
Y22117D01*
X23382Y22098D02*
X23420D01*
X23401Y22079D02*
Y22117D01*
X28614Y21082D02*
X28652D01*
X28633Y21063D02*
Y21101D01*
X28868Y21082D02*
X28906D01*
X28887Y21063D02*
Y21101D01*
X28741Y20955D02*
X28779D01*
X28760Y20936D02*
Y20974D01*
X25261Y20727D02*
X25300D01*
X25281Y20708D02*
Y20746D01*
X28309Y19101D02*
X28398D01*
X28354Y19057D02*
Y19145D01*
X28563Y18847D02*
X28652D01*
X28608Y18803D02*
Y18891D01*
X28817Y19101D02*
X28906D01*
X28862Y19057D02*
Y19145D01*
X25808Y18085D02*
X25922D01*
X25865Y18028D02*
Y18142D01*
X30430Y21387D02*
X30545D01*
X30488Y21330D02*
Y21444D01*
X30430Y22149D02*
X30545D01*
X30488Y22092D02*
Y22206D01*
X30430Y21768D02*
X30545D01*
X30488Y21711D02*
Y21825D01*
X29579Y18085D02*
X29668D01*
X29624Y18041D02*
Y18129D01*
X28055Y18085D02*
X28144D01*
X28100Y18041D02*
Y18129D01*
X25261Y22200D02*
X25350D01*
X25306Y22155D02*
Y22244D01*
X25261Y22581D02*
X25350D01*
X25306Y22536D02*
Y22625D01*
X27471Y19863D02*
X27509D01*
X27490Y19844D02*
Y19882D01*
X27268Y19863D02*
X27306D01*
X27287Y19844D02*
Y19882D01*
X27065Y19863D02*
X27103D01*
X27084Y19844D02*
Y19882D01*
X26658Y19863D02*
X26697D01*
X26678Y19844D02*
Y19882D01*
X26252Y19863D02*
X26290D01*
X26271Y19844D02*
Y19882D01*
X25846Y19863D02*
X25884D01*
X25865Y19844D02*
Y19882D01*
X25439Y19863D02*
X25477D01*
X25458Y19844D02*
Y19882D01*
X25033Y19863D02*
X25071D01*
X25052Y19844D02*
Y19882D01*
X24626Y19863D02*
X24665D01*
X24646Y19844D02*
Y19882D01*
X24220Y19863D02*
X24258D01*
X24239Y19844D02*
Y19882D01*
X24017Y18771D02*
X24055D01*
X24036Y18752D02*
Y18790D01*
X24169Y18898D02*
X24207D01*
X24188Y18879D02*
Y18917D01*
X23864Y18898D02*
X23903D01*
X23884Y18879D02*
Y18917D01*
X24017Y19025D02*
X24055D01*
X24036Y19006D02*
Y19044D01*
X21705Y19609D02*
X21794D01*
X21750Y19565D02*
Y19653D01*
X23229Y19609D02*
X23318D01*
X23274Y19565D02*
Y19653D01*
X21223Y20041D02*
X21261D01*
X21242Y20022D02*
Y20060D01*
X21096Y19888D02*
X21134D01*
X21115Y19869D02*
Y19907D01*
X20969Y20041D02*
X21007D01*
X20988Y20022D02*
Y20060D01*
X21096Y20193D02*
X21134D01*
X21115Y20174D02*
Y20212D01*
X21083Y19228D02*
X21197D01*
X21140Y19171D02*
Y19285D01*
X21083Y19609D02*
X21197D01*
X21140Y19552D02*
Y19666D01*
X26023Y20828D02*
X26062D01*
X26043Y20809D02*
Y20847D01*
X25896Y20676D02*
X25935D01*
X25916Y20657D02*
Y20695D01*
X26023Y21590D02*
X26062D01*
X26043Y21571D02*
Y21609D01*
X25896Y21743D02*
X25935D01*
X25916Y21724D02*
Y21762D01*
X25896Y21438D02*
X25935D01*
X25916Y21419D02*
Y21457D01*
X21115Y18110D02*
X21420D01*
X21267Y17958D02*
Y18263D01*
X30208Y18110D02*
X30513D01*
X30361Y17958D02*
Y18263D01*
X30208Y23140D02*
X30513D01*
X30361Y22987D02*
Y23292D01*
X22106Y23140D02*
X22410D01*
X22258Y22987D02*
Y23292D01*
X27598Y19990D02*
X27636D01*
X27617Y19971D02*
Y20009D01*
X23483Y21031D02*
X23522D01*
X23503Y21012D02*
Y21050D01*
X23382Y20904D02*
X23420D01*
X23401Y20885D02*
Y20923D01*
X23280Y21031D02*
X23318D01*
X23299Y21012D02*
Y21050D01*
X23382Y21158D02*
X23420D01*
X23401Y21139D02*
Y21177D01*
X22950Y19050D02*
X22988D01*
X22969Y19031D02*
Y19069D01*
X22823Y18898D02*
X22861D01*
X22842Y18879D02*
Y18917D01*
X22950Y18745D02*
X22988D01*
X22969Y18726D02*
Y18764D01*
X27878Y19609D02*
X27916D01*
X27897Y19590D02*
Y19628D01*
X27878Y19355D02*
X27916D01*
X27897Y19336D02*
Y19374D01*
X27751Y19482D02*
X27789D01*
X27770Y19463D02*
Y19501D01*
X29173Y19914D02*
X29211D01*
X29192Y19895D02*
Y19933D01*
X29046Y19787D02*
X29084D01*
X29065Y19768D02*
Y19806D01*
X29046Y20041D02*
X29084D01*
X29065Y20022D02*
Y20060D01*
X28716Y19609D02*
X28754D01*
X28735Y19590D02*
Y19628D01*
X23788Y18593D02*
X23826D01*
X23807Y18574D02*
Y18612D01*
X23661Y18720D02*
X23699D01*
X23680Y18701D02*
Y18739D01*
X23661Y18466D02*
X23699D01*
X23680Y18447D02*
Y18485D01*
X23534Y18593D02*
X23572D01*
X23553Y18574D02*
Y18612D01*
X29516Y23419D02*
X29630D01*
X29573Y23362D02*
Y23476D01*
X22201Y17983D02*
X22315D01*
X22258Y17926D02*
Y18041D01*
X22582Y17983D02*
X22696D01*
X22639Y17926D02*
Y18041D01*
X21083Y21654D02*
X21197D01*
X21140Y21597D02*
Y21711D01*
X21083Y22416D02*
X21197D01*
X21140Y22359D02*
Y22473D01*
X21083Y23178D02*
X21197D01*
X21140Y23121D02*
Y23235D01*
X21083Y22797D02*
X21197D01*
X21140Y22740D02*
Y22854D01*
X21083Y22035D02*
X21197D01*
X21140Y21978D02*
Y22092D01*
X24576Y20466D02*
X24614D01*
X24595Y20447D02*
Y20485D01*
X25795Y20466D02*
X25833D01*
X25814Y20447D02*
Y20485D01*
X26201Y20466D02*
X26239D01*
X26220Y20447D02*
Y20485D01*
X28284Y23038D02*
X28322D01*
X28303Y23019D02*
Y23057D01*
X28436Y22911D02*
X28475D01*
X28456Y22892D02*
Y22930D01*
X28132Y22911D02*
X28170D01*
X28151Y22892D02*
Y22930D01*
X28284Y22784D02*
X28322D01*
X28303Y22765D02*
Y22803D01*
X23077Y18898D02*
X23115D01*
X23096Y18879D02*
Y18917D01*
X30532Y19507D02*
X30646D01*
X30589Y19450D02*
Y19565D01*
X30532Y19101D02*
X30646D01*
X30589Y19044D02*
Y19158D01*
X24271Y19609D02*
X24309D01*
X24290Y19590D02*
Y19628D01*
X24525Y19609D02*
X24563D01*
X24544Y19590D02*
Y19628D01*
X24779Y19609D02*
X24817D01*
X24798Y19590D02*
Y19628D01*
X25033Y19609D02*
X25071D01*
X25052Y19590D02*
Y19628D01*
X25287Y19609D02*
X25325D01*
X25306Y19590D02*
Y19628D01*
X25795Y19609D02*
X25833D01*
X25814Y19590D02*
Y19628D01*
X26049Y19609D02*
X26087D01*
X26068Y19590D02*
Y19628D01*
X25541Y19609D02*
X25579D01*
X25560Y19590D02*
Y19628D01*
X26303Y19609D02*
X26341D01*
X26322Y19590D02*
Y19628D01*
X26557Y19609D02*
X26595D01*
X26576Y19590D02*
Y19628D01*
X23763Y19863D02*
X23801D01*
X23782Y19844D02*
Y19882D01*
X23763Y20117D02*
X23801D01*
X23782Y20098D02*
Y20136D01*
X23763Y20371D02*
X23801D01*
X23782Y20352D02*
Y20390D01*
X24144Y20688D02*
X24182D01*
X24163Y20669D02*
Y20708D01*
X23763Y20625D02*
X23801D01*
X23782Y20606D02*
Y20644D01*
X24398Y20688D02*
X24436D01*
X24417Y20669D02*
Y20708D01*
X24626Y20688D02*
X24665D01*
X24646Y20669D02*
Y20708D01*
X24855Y20688D02*
X24893D01*
X24874Y20669D02*
Y20708D01*
X25084Y20688D02*
X25122D01*
X25103Y20669D02*
Y20708D01*
X23509Y19863D02*
X23547D01*
X23528Y19844D02*
Y19882D01*
X23255Y19863D02*
X23293D01*
X23274Y19844D02*
Y19882D01*
X23001Y19863D02*
X23039D01*
X23020Y19844D02*
Y19882D01*
X23001Y19609D02*
X23039D01*
X23020Y19590D02*
Y19628D01*
X23001Y19355D02*
X23039D01*
X23020Y19336D02*
Y19374D01*
X23255Y19355D02*
X23293D01*
X23274Y19336D02*
Y19374D01*
X24271Y19355D02*
X24309D01*
X24290Y19336D02*
Y19374D01*
X24271Y19101D02*
X24309D01*
X24290Y19082D02*
Y19120D01*
X21985Y19609D02*
X22023D01*
X22004Y19590D02*
Y19628D01*
X21985Y19863D02*
X22023D01*
X22004Y19844D02*
Y19882D01*
X21731Y19863D02*
X21769D01*
X21750Y19844D02*
Y19882D01*
X21985Y19355D02*
X22023D01*
X22004Y19336D02*
Y19374D01*
X21731Y19355D02*
X21769D01*
X21750Y19336D02*
Y19374D01*
X21477Y19355D02*
X21515D01*
X21496Y19336D02*
Y19374D01*
X21477Y19863D02*
X21515D01*
X21496Y19844D02*
Y19882D01*
X26557Y19355D02*
X26595D01*
X26576Y19336D02*
Y19374D01*
X26811Y19355D02*
X26849D01*
X26830Y19336D02*
Y19374D01*
X27065Y19355D02*
X27103D01*
X27084Y19336D02*
Y19374D01*
X27065Y19609D02*
X27103D01*
X27084Y19590D02*
Y19628D01*
X27547Y20422D02*
X27586D01*
X27567Y20403D02*
Y20441D01*
X26455Y20688D02*
X26493D01*
X26474Y20669D02*
Y20708D01*
X26709Y20688D02*
X26747D01*
X26728Y20669D02*
Y20708D01*
X26963Y20688D02*
X27001D01*
X26982Y20669D02*
Y20708D01*
X26773Y18085D02*
X26887D01*
X26830Y18028D02*
Y18142D01*
X26773Y19609D02*
X26887D01*
X26830Y19552D02*
Y19666D01*
X26658Y21336D02*
X26697D01*
X26678Y21317D02*
Y21355D01*
X24931Y21971D02*
X24969D01*
X24950Y21952D02*
Y21990D01*
X28157Y19736D02*
X28195D01*
X28176Y19717D02*
Y19755D01*
X29249Y22403D02*
X29287D01*
X29268Y22384D02*
Y22422D01*
X27979Y18796D02*
X28017D01*
X27998Y18777D02*
Y18815D01*
X25795Y21997D02*
X25833D01*
X25814Y21978D02*
Y22016D01*
X26633Y21235D02*
X26671D01*
X26652Y21216D02*
Y21254D01*
X23407Y22352D02*
X23445D01*
X23426Y22333D02*
Y22371D01*
X28240Y21724D02*
X28278D01*
X28259Y21704D02*
Y21743D01*
X25617Y21082D02*
X25655D01*
X25636Y21063D02*
Y21101D01*
X24931Y20930D02*
X24969D01*
X24950Y20911D02*
Y20949D01*
X24112Y21203D02*
X24150D01*
X24131Y21184D02*
Y21222D01*
X27573Y21336D02*
X27611D01*
X27592Y21317D02*
Y21355D01*
X26125Y22098D02*
X26163D01*
X26144Y22079D02*
Y22117D01*
X28995Y19685D02*
X29033D01*
X29014Y19666D02*
Y19704D01*
X25541Y21844D02*
X25579D01*
X25560Y21825D02*
Y21863D01*
X29351Y20219D02*
X29389D01*
X29370Y20200D02*
Y20238D01*
X27776Y20193D02*
X27814D01*
X27795Y20174D02*
Y20212D01*
X23668Y18898D02*
X23706D01*
X23687Y18879D02*
Y18917D01*
X28259Y22098D02*
X28297D01*
X28278Y22079D02*
Y22117D01*
X29249Y19304D02*
X29287D01*
X29268Y19285D02*
Y19323D01*
X28970Y21997D02*
X29008D01*
X28989Y21978D02*
Y22016D01*
X28767Y22403D02*
X28805D01*
X28786Y22384D02*
Y22422D01*
X29249Y20523D02*
X29287D01*
X29268Y20504D02*
Y20542D01*
D23*
X25202Y17181D02*
Y17333D01*
X25126Y17257D01*
X25227D01*
X25278Y17308D02*
X25304Y17333D01*
X25354D01*
X25380Y17308D01*
Y17206D01*
X25354Y17181D01*
X25304D01*
X25278Y17206D01*
Y17308D01*
X25430D02*
X25456Y17333D01*
X25507D01*
X25532Y17308D01*
Y17206D01*
X25507Y17181D01*
X25456D01*
X25430Y17206D01*
Y17308D01*
X25583D02*
X25608Y17333D01*
X25659D01*
X25684Y17308D01*
Y17206D01*
X25659Y17181D01*
X25608D01*
X25583Y17206D01*
Y17308D01*
X25938Y17181D02*
X25888Y17232D01*
Y17282D01*
X25938Y17333D01*
X26014Y17181D02*
Y17282D01*
X26040D01*
X26065Y17257D01*
Y17181D01*
Y17257D01*
X26091Y17282D01*
X26116Y17257D01*
Y17181D01*
X26167D02*
X26218D01*
X26192D01*
Y17282D01*
X26167D01*
X26294Y17181D02*
X26345D01*
X26319D01*
Y17333D01*
X26294D01*
X26421Y17181D02*
X26472Y17232D01*
Y17282D01*
X26421Y17333D01*
X20190Y20038D02*
Y19937D01*
X20089Y20038D01*
X20063D01*
X20038Y20013D01*
Y19962D01*
X20063Y19937D01*
X20190Y20165D02*
X20038D01*
X20114Y20089D01*
Y20191D01*
X20063Y20242D02*
X20038Y20267D01*
Y20318D01*
X20063Y20343D01*
X20165D01*
X20190Y20318D01*
Y20267D01*
X20165Y20242D01*
X20063D01*
Y20394D02*
X20038Y20419D01*
Y20470D01*
X20063Y20495D01*
X20165D01*
X20190Y20470D01*
Y20419D01*
X20165Y20394D01*
X20063D01*
X20190Y20749D02*
X20140Y20699D01*
X20089D01*
X20038Y20749D01*
X20190Y20826D02*
X20089D01*
Y20851D01*
X20114Y20876D01*
X20190D01*
X20114D01*
X20089Y20902D01*
X20114Y20927D01*
X20190D01*
Y20978D02*
Y21029D01*
Y21003D01*
X20089D01*
Y20978D01*
X20190Y21105D02*
Y21156D01*
Y21130D01*
X20038D01*
Y21105D01*
X20190Y21232D02*
X20140Y21283D01*
X20089D01*
X20038Y21232D01*
M02*
