%FSLAX42Y42*%
%MOMM*%
G71*
G01*
G75*
%ADD10C,0.25*%
%ADD11R,1.27X1.27*%
%ADD12R,1.52X1.78*%
%ADD13R,1.02X0.76*%
%ADD14R,0.76X1.02*%
%ADD15R,1.78X1.52*%
%ADD16R,1.78X1.27*%
%ADD17R,1.27X1.78*%
%ADD18R,1.52X0.61*%
%ADD19R,1.27X1.40*%
%ADD20R,0.61X1.52*%
%ADD21R,1.40X1.27*%
%ADD22C,0.13*%
%ADD23C,0.15*%
%ADD24C,0.76*%
%ADD25C,2.54*%
%ADD26C,2.03*%
%ADD27R,2.03X2.03*%
%ADD28R,2.54X2.54*%
%ADD29C,9.14*%
%ADD30C,0.51*%
%ADD31R,1.47X1.47*%
%ADD32R,1.73X1.98*%
%ADD33R,1.22X0.97*%
%ADD34R,0.97X1.22*%
%ADD35R,1.98X1.73*%
%ADD36R,1.98X1.47*%
%ADD37R,1.47X1.98*%
%ADD38R,1.73X0.81*%
%ADD39R,1.47X1.60*%
%ADD40R,0.81X1.73*%
%ADD41R,1.60X1.47*%
%ADD42C,2.74*%
%ADD43C,2.24*%
%ADD44R,2.24X2.24*%
%ADD45R,2.74X2.74*%
%ADD46C,9.35*%
D10*
X20734Y17577D02*
Y23673D01*
X30894Y17577D02*
Y23673D01*
X20734D02*
X30894D01*
X20734Y17577D02*
X30894D01*
Y17247D02*
Y17298D01*
X20734Y17247D02*
Y17298D01*
X30742Y17221D02*
X30894Y17272D01*
X30742Y17323D02*
X30894Y17272D01*
X20734D02*
X20886Y17221D01*
X20734Y17272D02*
X20886Y17323D01*
X26527Y17272D02*
X30894D01*
X20734D02*
X25100D01*
X20734Y16891D02*
Y17577D01*
X20074Y23673D02*
X20124D01*
X20074Y17577D02*
X20124D01*
X20099Y23673D02*
X20150Y23521D01*
X20048D02*
X20099Y23673D01*
Y17577D02*
X20150Y17729D01*
X20048D02*
X20099Y17577D01*
Y21339D02*
Y23673D01*
Y17577D02*
Y19911D01*
X19845Y17577D02*
X20734D01*
D23*
X25202Y17181D02*
Y17333D01*
X25126Y17257D01*
X25227D01*
X25278Y17308D02*
X25304Y17333D01*
X25354D01*
X25380Y17308D01*
Y17206D01*
X25354Y17181D01*
X25304D01*
X25278Y17206D01*
Y17308D01*
X25430D02*
X25456Y17333D01*
X25507D01*
X25532Y17308D01*
Y17206D01*
X25507Y17181D01*
X25456D01*
X25430Y17206D01*
Y17308D01*
X25583D02*
X25608Y17333D01*
X25659D01*
X25684Y17308D01*
Y17206D01*
X25659Y17181D01*
X25608D01*
X25583Y17206D01*
Y17308D01*
X25938Y17181D02*
X25888Y17232D01*
Y17282D01*
X25938Y17333D01*
X26014Y17181D02*
Y17282D01*
X26040D01*
X26065Y17257D01*
Y17181D01*
Y17257D01*
X26091Y17282D01*
X26116Y17257D01*
Y17181D01*
X26167D02*
X26218D01*
X26192D01*
Y17282D01*
X26167D01*
X26294Y17181D02*
X26345D01*
X26319D01*
Y17333D01*
X26294D01*
X26421Y17181D02*
X26472Y17232D01*
Y17282D01*
X26421Y17333D01*
X20190Y20038D02*
Y19937D01*
X20089Y20038D01*
X20063D01*
X20038Y20013D01*
Y19962D01*
X20063Y19937D01*
X20190Y20165D02*
X20038D01*
X20114Y20089D01*
Y20191D01*
X20063Y20242D02*
X20038Y20267D01*
Y20318D01*
X20063Y20343D01*
X20165D01*
X20190Y20318D01*
Y20267D01*
X20165Y20242D01*
X20063D01*
Y20394D02*
X20038Y20419D01*
Y20470D01*
X20063Y20495D01*
X20165D01*
X20190Y20470D01*
Y20419D01*
X20165Y20394D01*
X20063D01*
X20190Y20749D02*
X20140Y20699D01*
X20089D01*
X20038Y20749D01*
X20190Y20826D02*
X20089D01*
Y20851D01*
X20114Y20876D01*
X20190D01*
X20114D01*
X20089Y20902D01*
X20114Y20927D01*
X20190D01*
Y20978D02*
Y21029D01*
Y21003D01*
X20089D01*
Y20978D01*
X20190Y21105D02*
Y21156D01*
Y21130D01*
X20038D01*
Y21105D01*
X20190Y21232D02*
X20140Y21283D01*
X20089D01*
X20038Y21232D01*
D42*
X29573Y22403D02*
D03*
Y20625D02*
D03*
X30589D02*
D03*
X30488Y21387D02*
D03*
Y21768D02*
D03*
X21140Y19228D02*
D03*
X29573Y23419D02*
D03*
X22639Y17983D02*
D03*
X21140Y21654D02*
D03*
Y22416D02*
D03*
Y22797D02*
D03*
Y22035D02*
D03*
X26830Y18085D02*
D03*
Y19609D02*
D03*
D43*
X28354Y19101D02*
D03*
X28608Y18847D02*
D03*
X29624Y18085D02*
D03*
X28100D02*
D03*
X25306Y22200D02*
D03*
Y22581D02*
D03*
X21750Y19609D02*
D03*
X23274D02*
D03*
D44*
X28862Y19101D02*
D03*
D45*
X25865Y18085D02*
D03*
X30488Y22149D02*
D03*
X21140Y19609D02*
D03*
X22258Y17983D02*
D03*
X21140Y23178D02*
D03*
X30589Y19507D02*
D03*
Y19101D02*
D03*
D46*
X21267Y18110D02*
D03*
X30361D02*
D03*
Y23140D02*
D03*
X22258D02*
D03*
M02*
